<?xml version="1.0" standalone="no"?><!DOCTYPE svg PUBLIC "-//W3C//DTD SVG 1.1//EN" "http://www.w3.org/Graphics/SVG/1.1/DTD/svg11.dtd"><svg t="1632463966486" class="icon" viewBox="0 0 1024 1024" version="1.1" xmlns="http://www.w3.org/2000/svg" p-id="9962" xmlns:xlink="http://www.w3.org/1999/xlink" width="16" height="16"><defs><style type="text/css"></style></defs><path d="M938.666667 85.333333v85.333334h-136.533334l-4.266666 29.866666-4.266667 29.866667-4.266667 25.6-4.266666 25.6-4.266667 21.333333-4.266667 21.333334v8.533333l-4.266666 17.066667c0 8.533333-4.266667 17.066667-4.266667 21.333333-17.066667 55.466667-42.666667 98.133333-81.066667 136.533333 42.666667 51.2 76.8 115.2 98.133334 196.266667 12.8 46.933333 21.333333 98.133333 25.6 145.066667h128v85.333333H85.333333v-85.333333h128c4.266667-55.466667 12.8-102.4 25.6-149.333334 21.333333-68.266667 51.2-128 98.133334-183.466666-29.866667-4.266667-55.466667-51.2-81.066667-140.8-21.333333-64-34.133333-132.266667-38.4-204.8H85.333333V85.333333h853.333334z m-221.866667 85.333334H302.933333v17.066666c4.266667 51.2 12.8 98.133333 25.6 145.066667l4.266667 21.333333c8.533333 34.133333 21.333333 59.733333 29.866667 76.8l4.266666 8.533334s0 4.266667 17.066667 12.8c17.066667 8.533333 102.4 17.066667 102.4 17.066666l-85.333333 106.666667c-38.4 42.666667-64 93.866667-81.066667 153.6-8.533333 34.133333-17.066667 72.533333-21.333333 115.2v8.533333h426.666666v-12.8c-4.266667-29.866667-8.533333-59.733333-17.066666-93.866666l-4.266667-17.066667c-17.066667-59.733333-42.666667-110.933333-72.533333-153.6l-8.533334-12.8-51.2-59.733333 59.733334-55.466667c29.866667-25.6 46.933333-59.733333 59.733333-98.133333 0-4.266667 4.266667-8.533333 4.266667-12.8l4.266666-17.066667-4.266666-21.333333v-8.533334l4.266666-21.333333 4.266667-25.6 4.266667-25.6 8.533333-46.933333zM597.333333 682.666667v85.333333h-170.666666v-85.333333h170.666666zM512 256c25.6 0 42.666667 17.066667 42.666667 42.666667s-17.066667 42.666667-42.666667 42.666666-42.666667-17.066667-42.666667-42.666666 17.066667-42.666667 42.666667-42.666667z" p-id="9963" fill="#828C99"></path></svg>