<?xml version="1.0" standalone="no"?><!DOCTYPE svg PUBLIC "-//W3C//DTD SVG 1.1//EN" "http://www.w3.org/Graphics/SVG/1.1/DTD/svg11.dtd"><svg t="1632464081670" class="icon" viewBox="0 0 1024 1024" version="1.1" xmlns="http://www.w3.org/2000/svg" p-id="10312" xmlns:xlink="http://www.w3.org/1999/xlink" width="16" height="16"><defs><style type="text/css"></style></defs><path d="M541.866667 469.333333c29.866667 0 59.733333 12.8 76.8 34.133334l213.333333 256c29.866667 38.4 21.333333 89.6-21.333333 119.466666-17.066667 12.8-38.4 17.066667-55.466667 17.066667H179.2C128 896 85.333333 857.6 85.333333 810.666667c0-17.066667 8.533333-38.4 17.066667-51.2l213.333333-256c21.333333-21.333333 51.2-34.133333 81.066667-34.133334h145.066667z m221.866666 341.333334l-217.6-256H396.8l-217.6 256h584.533333zM469.333333 85.333333c93.866667 0 170.666667 76.8 170.666667 170.666667 0 89.6-72.533333 166.4-162.133333 170.666667H469.333333c-93.866667 0-170.666667-76.8-170.666666-170.666667 0-89.6 72.533333-166.4 162.133333-170.666667h8.533333z m0 85.333334c-46.933333 0-85.333333 38.4-85.333333 85.333333s38.4 85.333333 85.333333 85.333333 85.333333-38.4 85.333334-85.333333-38.4-85.333333-85.333334-85.333333z" p-id="10313" fill="#FD617F"></path><path d="M682.666667 213.333333c140.8 0 256 115.2 256 256s-115.2 256-256 256-256-115.2-256-256 115.2-256 256-256z m42.666666 341.333334h-85.333333v85.333333h85.333333v-85.333333z m0-256h-85.333333v213.333333h85.333333V298.666667z" p-id="10314" fill="#FD617F"></path></svg>