<?xml version="1.0" standalone="no"?><!DOCTYPE svg PUBLIC "-//W3C//DTD SVG 1.1//EN" "http://www.w3.org/Graphics/SVG/1.1/DTD/svg11.dtd"><svg t="1632464034124" class="icon" viewBox="0 0 1024 1024" version="1.1" xmlns="http://www.w3.org/2000/svg" p-id="10136" xmlns:xlink="http://www.w3.org/1999/xlink" width="16" height="16"><defs><style type="text/css"></style></defs><path d="M512 85.333333c234.666667 0 426.666667 192 426.666667 426.666667s-192 426.666667-426.666667 426.666667S85.333333 746.666667 85.333333 512 277.333333 85.333333 512 85.333333z m0 85.333334c-187.733333 0-341.333333 153.6-341.333333 341.333333s153.6 341.333333 341.333333 341.333333 341.333333-153.6 341.333333-341.333333-153.6-341.333333-341.333333-341.333333z m0 512c46.933333 0 85.333333 17.066667 85.333333 42.666666s-38.4 42.666667-85.333333 42.666667-85.333333-17.066667-85.333333-42.666667 38.4-42.666667 85.333333-42.666666z m0-426.666667c93.866667 0 170.666667 72.533333 170.666667 162.133333 0 59.733333-51.2 128-153.6 209.066667l-17.066667 12.8-25.6-17.066667C392.533333 541.866667 341.333333 477.866667 341.333333 418.133333 341.333333 328.533333 418.133333 256 512 256z m0 85.333333c-46.933333 0-85.333333 38.4-85.333333 89.6 0 34.133333 25.6 68.266667 72.533333 110.933334l12.8 12.8 8.533333-8.533334c51.2-42.666667 76.8-81.066667 76.8-115.2 0-51.2-38.4-89.6-85.333333-89.6z" p-id="10137" fill="#828C99"></path></svg>