<?xml version="1.0" standalone="no"?><!DOCTYPE svg PUBLIC "-//W3C//DTD SVG 1.1//EN" "http://www.w3.org/Graphics/SVG/1.1/DTD/svg11.dtd"><svg t="1632454769949" class="icon" viewBox="0 0 1024 1024" version="1.1" xmlns="http://www.w3.org/2000/svg" p-id="9202" width="16" height="16" xmlns:xlink="http://www.w3.org/1999/xlink"><defs><style type="text/css"></style></defs><path d="M512 128c38.4 0 81.066667 4.266667 115.2 17.066667l-17.066667 85.333333c-29.866667-12.8-64-17.066667-98.133333-17.066667-166.4 0-298.666667 132.266667-298.666667 298.666667s132.266667 298.666667 298.666667 298.666667c157.866667 0 290.133333-123.733333 298.666667-281.6l85.333333 4.266666c-12.8 200.533333-179.2 358.4-384 358.4-213.333333 0-384-170.666667-384-384S298.666667 128 512 128z m354.133333 55.466667l59.733334 59.733333-401.066667 413.866667L358.4 512l55.466667-64 106.666666 89.6 345.6-354.133333z" p-id="9203" fill="#21AC8D"></path></svg>