<?xml version="1.0" encoding="UTF-8"?>
<svg width="24px" height="24px" viewBox="0 0 24 24" version="1.1" xmlns="http://www.w3.org/2000/svg" xmlns:xlink="http://www.w3.org/1999/xlink">
    <title>切片</title>
    <defs>
        <path d="M6,0 L6,3 L7,3 L7,0 L9,0 L9,3 L10,3 L10,0 L12,0 L12,3 L17,3 L17,4.003 L17.0674915,4.00529428 C18.6858697,4.10015692 19.9730633,5.45807569 19.9995848,7.12921197 L20,7.18181803 L20,7.81818164 C20,9.55789368 18.633733,10.9714694 16.9378349,10.9995754 L16.886356,11 L16.6233568,11 L16.5727645,10.9967409 C15.4537762,14.4836884 12.2623502,17 8.5,17 C3.80557963,17 0,13.0824916 0,8.25 L0,3 L4,3 L4,0 L6,0 Z M15,5 L2,5 L2,8.125 C2,11.8293489 4.76992183,14.8494239 8.23857338,14.994541 L8.5,15 C12.0022935,15 14.8576372,12.070275 14.9948388,8.40150893 L15,8.125 L15,5 Z M17.0006013,5.27623858 L17,8.25 C17,8.7537273 16.9586506,9.24751287 16.8792552,9.72795608 L16.886356,9.72727246 C17.9065933,9.72727246 18.7358605,8.89151492 18.754231,7.85318164 L18.7545424,7.18181803 C18.7545424,6.16667238 17.9791576,5.33656522 17.0006013,5.27623858 Z" id="path-1"></path>
    </defs>
    <g id="手术排班-061221" stroke="none" stroke-width="1" fill="none" fill-rule="evenodd">
        <g id="手术预约管理_071221" transform="translate(-1521.000000, -463.000000)">
            <g id="days备份" transform="translate(292.000000, 393.000000)">
                <g id="component/daliy/weekend备份-2" transform="translate(1150.000000, 0.000000)">
                    <g id="编组备份-3" transform="translate(79.000000, 70.000000)">
                        <g id="icon/and备份-2" transform="translate(2.000000, 4.000000)">
                            <mask id="mask-2" fill="white">
                                <use xlink:href="#path-1"></use>
                            </mask>
                            <use id="形状结合" fill="#000000" fill-rule="nonzero" xlink:href="#path-1"></use>
                            <g id="编组" mask="url(#mask-2)">
                                <g transform="translate(-2.000000, -4.000000)" id="color/01/FC425F">
                                    <rect id="0087D4" fill="#242741" x="0" y="0" width="24" height="24"></rect>
                                </g>
                            </g>
                        </g>
                    </g>
                </g>
            </g>
        </g>
    </g>
</svg>